<svg width="559" height="476" viewBox="0 0 559 476" fill="none" xmlns="http://www.w3.org/2000/svg">
<path d="M555 352.73C495.722 352.73 441.04 394.229 412.089 359.647C383.138 325.064 424.497 287.715 453.446 313.075C482.395 338.436 448.389 407.601 388.192 405.296C327.996 402.99 277.908 302.931 204.385 302.009C130.861 301.086 74.801 374.863 96.8571 474" stroke="white" stroke-width="6"/>
<path d="M555 90C483.609 90 460.105 172.548 408.534 141.507C343.592 102.417 287.4 151.164 303.981 206.35C320.562 261.535 367.081 341.094 315.035 388.002C262.989 434.91 112.378 294.187 58.9495 341.094C18.4189 372.826 61.5602 436.29 75.0707 474" stroke="#90C5C1" stroke-width="6"/>
<path d="M558 3C478.782 3.00002 479.703 48.9961 443.778 48.0762C407.853 47.1562 419.828 -7.11917 454.832 8.97947C489.836 25.0781 482.926 171.346 345.674 191.584C208.423 211.822 328.173 386.608 186.315 400.406C72.8294 411.445 47.5293 454.682 49.0645 474" stroke="#12798A" stroke-width="6"/>
<path d="M558 178.367C497.254 163.608 448.472 200.043 415.799 170.987C383.125 141.931 405.214 99.9618 437.888 105.496C476.545 112.044 495.413 186.207 442.949 247.087C344.808 337.146 319.615 248.931 352.29 230.944C384.965 212.957 426.843 296.436 384.965 372.535C343.087 448.634 219.754 433.875 146.122 418.655C72.49 403.435 78.4717 363.772 89.5169 351.78C100.562 339.789 132.224 334.908 128.174 372.535C123.112 419.568 10.3632 395.134 3 474" stroke="#50949A" stroke-width="6"/>
<path d="M557 265.881C538.145 271.111 491.696 277.602 465.943 261.728C440.19 245.853 434.058 219.427 434.211 208.198C434.365 192.508 443.502 162.421 478.821 167.589C522.969 174.05 528.947 221.119 478.821 280.648C428.694 340.176 458.586 454.619 497.676 438.467C520.67 426.469 519.29 400.628 505.034 389.553C490.777 378.477 473.762 375.747 415.357 418.163C348.767 466.524 258.232 440.467 221.288 421.393C159.204 383.554 32.8297 342.207 24 474" stroke="#0D5563" stroke-width="6"/>
</svg>
