<svg width="93" height="27" viewBox="0 0 93 27" fill="none" xmlns="http://www.w3.org/2000/svg">
<path d="M24.1797 0H28.4577V26.412H24.1797V0Z" fill="white"/>
<path d="M43.3381 18.0421C43.3381 22.1341 39.9901 22.5061 38.8741 22.5061C36.2701 22.5061 35.8981 20.0881 35.8981 18.7861V8.55615H31.6201V18.6001C31.6201 21.0181 32.3641 23.2501 33.8521 24.5521C35.1541 25.8541 36.8281 26.4121 38.8741 26.4121C40.3621 26.4121 42.2221 26.0401 43.3381 24.9241V26.4121H47.6161V8.55615H43.3381V18.0421Z" fill="white"/>
<path d="M55.9859 2.0459H51.7079V8.5559H48.5459V12.6479H51.7079V26.4119H55.9859V12.6479H59.1479V8.5559H55.9859V2.0459Z" fill="white"/>
<path d="M72.5396 21.0181C71.6096 21.7621 70.3076 22.3201 69.0056 22.3201C66.0296 22.3201 63.9836 20.0881 63.9836 17.1121C63.9836 14.1361 66.0296 12.0901 69.0056 12.0901C70.3076 12.0901 71.6096 12.4621 72.5396 13.3921L73.0976 13.9501L76.0736 11.1601L75.3296 10.6021C73.6556 9.11408 71.4236 8.18408 69.0056 8.18408C63.7976 8.18408 59.8916 12.0901 59.8916 17.2981C59.8916 22.5061 63.7976 26.4121 69.0056 26.4121C71.4236 26.4121 73.6556 25.4821 75.3296 23.9941L76.0736 23.4361L73.0976 20.4601L72.5396 21.0181Z" fill="white"/>
<path d="M91.1401 10.044C89.8381 8.742 88.5361 8.184 86.4901 8.184C85.0021 8.184 83.5141 8.556 82.3981 9.672V0H78.1201V26.412H82.3981V16.554C82.3981 12.462 85.1881 12.09 86.3041 12.09C88.9081 12.09 88.7221 14.508 88.7221 15.81V26.226H93.0001V15.996C93.0001 13.578 92.4421 11.346 91.1401 10.044Z" fill="white"/>
<path d="M68.8197 20.274C70.4633 20.274 71.7957 18.9416 71.7957 17.298C71.7957 15.6544 70.4633 14.322 68.8197 14.322C67.1762 14.322 65.8438 15.6544 65.8438 17.298C65.8438 18.9416 67.1762 20.274 68.8197 20.274Z" fill="#EF4335"/>
<path d="M18.228 19.9023C16.74 21.3903 14.508 22.3203 12.09 22.3203C7.44 22.3203 4.092 18.6003 4.092 13.5783C4.092 8.5563 7.44 4.8363 12.276 4.8363C14.508 4.8363 16.74 5.7663 18.414 7.4403L18.972 7.9983L21.762 5.2083L21.204 4.6503C18.786 2.2323 15.624 0.930299 12.276 0.930299C5.208 0.744299 0 6.3243 0 13.5783C0 20.8323 5.208 26.4123 12.09 26.4123C15.438 26.4123 18.786 25.1103 21.018 22.6923L21.576 22.1343L18.786 19.3443L18.228 19.9023Z" fill="white"/>
</svg>
