<svg width="23" height="20" viewBox="0 0 23 20" fill="none" xmlns="http://www.w3.org/2000/svg">
<path d="M17.8687 7.74798C17.8033 7.44496 17.5175 7.22691 17.1856 7.22691H0.995402C0.663482 7.22691 0.377679 7.44496 0.312366 7.74798C0.105089 8.70963 0 9.70521 0 10.7071C0 12.5246 0.333214 14.26 0.990447 15.8651C1.62353 17.4112 2.54978 18.7759 3.66906 19.8115C3.79955 19.9322 3.97612 20 4.16004 20H14.0209C14.2049 20 14.3814 19.9322 14.512 19.8114C15.6313 18.7759 16.5575 17.4112 17.1906 15.865C17.8477 14.2599 18.181 12.5245 18.181 10.7071C18.181 9.70525 18.0759 8.70967 17.8687 7.74798Z" fill="#12798A"/>
<path d="M6.38089 2.17386C6.38089 2.03663 6.40991 2.00076 6.56397 1.83314C6.77022 1.60881 7.08188 1.26975 7.08188 0.648738C7.08188 0.290467 6.76996 0 6.38522 0C6.00049 0 5.68857 0.290467 5.68857 0.648738C5.68857 0.785927 5.65955 0.821804 5.50549 0.989424C5.29924 1.21379 4.98759 1.55286 4.98759 2.17386C4.98759 2.79491 5.2992 3.13398 5.5054 3.35835C5.65946 3.52597 5.68848 3.56193 5.68848 3.6992C5.68848 3.83647 5.65946 3.87239 5.50536 4.04005C5.42732 4.12498 5.33018 4.2307 5.24304 4.3617C5.04045 4.6663 5.14143 5.06614 5.46853 5.2548C5.58277 5.32065 5.70946 5.35208 5.83464 5.35208C6.06786 5.35208 6.29576 5.24303 6.42763 5.04486C6.45839 4.99863 6.50728 4.94537 6.56393 4.88376C6.77013 4.6594 7.08179 4.32033 7.08179 3.69928C7.08179 3.07823 6.77013 2.73917 6.56393 2.5148C6.40991 2.34705 6.38089 2.31114 6.38089 2.17386Z" fill="#12798A"/>
<path d="M9.43674 2.17386C9.43674 2.03663 9.46576 2.00076 9.61982 1.83314C9.82607 1.60881 10.1377 1.26975 10.1377 0.648738C10.1377 0.290467 9.8258 0 9.44107 0C9.05634 0 8.74442 0.290467 8.74442 0.648738C8.74442 0.785927 8.7154 0.821804 8.56134 0.989424C8.35509 1.21379 8.04344 1.55286 8.04344 2.17386C8.04344 2.79491 8.35509 3.13398 8.56129 3.35835C8.71536 3.52597 8.74438 3.56193 8.74438 3.6992C8.74438 3.83647 8.71536 3.87239 8.56125 4.04005C8.48321 4.12498 8.38607 4.2307 8.29893 4.3617C8.09634 4.6663 8.19732 5.06614 8.52442 5.2548C8.63866 5.32065 8.76536 5.35208 8.89054 5.35208C9.12375 5.35208 9.35161 5.24303 9.48353 5.04486C9.51429 4.99863 9.56317 4.94537 9.61982 4.88376C9.82603 4.6594 10.1377 4.32033 10.1377 3.69928C10.1377 3.07823 9.82603 2.73917 9.61982 2.5148C9.46576 2.34705 9.43674 2.31114 9.43674 2.17386Z" fill="#12798A"/>
<path d="M12.4925 2.17386C12.4925 2.03663 12.5215 2.00076 12.6756 1.83314C12.8818 1.60881 13.1935 1.26975 13.1935 0.648738C13.1935 0.290467 12.8816 0 12.4968 0C12.1121 0 11.8002 0.290467 11.8002 0.648738C11.8002 0.785927 11.7712 0.821804 11.6171 0.989424C11.4108 1.21379 11.0992 1.55286 11.0992 2.17386C11.0992 2.79491 11.4108 3.13398 11.617 3.35835C11.7711 3.52597 11.8001 3.56193 11.8001 3.6992C11.8001 3.83647 11.7711 3.87239 11.617 4.04005C11.539 4.12498 11.4418 4.2307 11.3547 4.36174C11.1521 4.66634 11.2531 5.06618 11.5802 5.2548C11.6944 5.32065 11.8211 5.35208 11.9463 5.35208C12.1795 5.35208 12.4074 5.24299 12.5392 5.04481C12.57 4.99863 12.6189 4.94537 12.6755 4.88376C12.8817 4.6594 13.1933 4.32029 13.1933 3.69928C13.1933 3.07823 12.8817 2.73917 12.6755 2.5148C12.5215 2.34705 12.4925 2.31114 12.4925 2.17386Z" fill="#12798A"/>
<path d="M21.3995 8.86985C20.8129 8.60724 20.1361 8.53553 19.4355 8.64208C19.4936 9.07198 19.5336 9.50591 19.5551 9.94205C20.0689 9.84822 20.5012 9.90738 20.7958 10.0392C21.2329 10.2349 21.4639 10.5976 21.4639 11.0882C21.4639 12.1918 20.6171 13.9617 18.9281 15.104C18.8011 15.5184 18.6565 15.9266 18.4925 16.3273C18.4047 16.5416 18.3118 16.7529 18.2138 16.9608C19.5792 16.4346 20.5393 15.6165 21.1651 14.9143C22.2087 13.7432 22.8571 12.2771 22.8571 11.0881C22.8571 10.1077 22.3122 9.27847 21.3995 8.86985Z" fill="#12798A"/>
</svg>
