<svg width="17" height="13" viewBox="0 0 17 13" fill="none" xmlns="http://www.w3.org/2000/svg">
<path d="M14.9174 0.42627C15.2563 0.42627 15.409 0.846707 15.148 1.06086L8.55935 6.46692C8.42559 6.57667 8.23202 6.57668 8.09825 6.46695L1.50766 1.06089C1.24661 0.84676 1.39936 0.42627 1.73819 0.42627H14.9174ZM15.3542 12.2295H1.30346C0.838381 12.2295 0.459961 11.8356 0.459961 11.3515V2.87468C0.459961 2.57298 0.813017 2.40623 1.04938 2.5963L7.86026 8.07338C7.99822 8.18434 8.16357 8.23976 8.32881 8.23976C8.49406 8.23976 8.65941 8.18434 8.79737 8.07338L15.6082 2.59631C15.8446 2.40623 16.1977 2.57298 16.1977 2.87468V11.3514C16.1977 11.8356 15.8192 12.2295 15.3542 12.2295Z" fill="#D25F4D"/>
</svg>
