<svg width="30" height="30" viewBox="0 0 30 30" fill="none" xmlns="http://www.w3.org/2000/svg">
<path d="M11.25 15C11.25 17.0704 12.9297 18.7499 15 18.7499C17.0703 18.7499 18.75 17.0704 18.75 15C18.75 12.9286 17.0703 11.2499 15 11.2499C12.9297 11.2499 11.25 12.9286 11.25 15Z" fill="white"/>
<path d="M18.75 10.1249C18.75 10.7461 19.2539 11.2499 19.875 11.2499C20.4961 11.2499 21 10.7461 21 10.1249C21 9.50372 20.4961 8.99992 19.875 8.99992C19.2539 8.99992 18.75 9.50372 18.75 10.1249Z" fill="white"/>
<path fill-rule="evenodd" clip-rule="evenodd" d="M15 30C23.2852 30 30 23.2843 30 15C30 6.71573 23.2852 0 15 0C6.71484 0 0 6.71573 0 15C0 23.2843 6.71484 30 15 30ZM6 10.5C6 8.02434 8.02344 6 10.5 6H19.5C21.9766 6 24 8.02434 24 10.5V19.5C24 21.9748 21.9766 24 19.5 24H10.5C8.02344 24 6 21.9748 6 19.5V10.5Z" fill="white"/>
</svg>
