<svg width="30" height="30" viewBox="0 0 30 30" fill="none" xmlns="http://www.w3.org/2000/svg">
<path d="M17.7335 12.8684C16.4496 12.8684 15.8762 13.5741 15.5553 14.0695V13.04H13.1373C13.1687 13.7215 13.1373 20.3152 13.1373 20.3152H15.5553V16.2507C15.5553 16.0338 15.5692 15.8157 15.6345 15.6604C15.8097 15.2254 16.2073 14.7752 16.8755 14.7752C17.7504 14.7752 18.1002 15.4423 18.1002 16.4211V20.3134H20.5183L20.5189 16.1413C20.5177 13.9082 19.3244 12.8684 17.7335 12.8684ZM15.5535 14.0949H15.5384C15.5432 14.0864 15.5505 14.0786 15.5535 14.0701V14.0949Z" fill="white"/>
<path d="M11.7971 13.04H9.3791V20.3153H11.7971V13.04Z" fill="white"/>
<path d="M15 0C6.72903 0 0 6.72903 0 15C0 23.2704 6.72903 30 15 30C23.2704 30 30 23.2704 30 15C30 6.72903 23.2716 0 15 0ZM22.9544 21.7846C22.9544 22.4227 22.4251 22.9387 21.7707 22.9387H8.12716C7.47462 22.9387 6.94474 22.4227 6.94474 21.7846V7.98216C6.94474 7.34472 7.47462 6.82812 8.12716 6.82812H21.7707C22.4245 6.82812 22.9544 7.34532 22.9544 7.98216V21.7846Z" fill="white"/>
<path d="M10.6043 9.53232C9.77779 9.53232 9.23643 10.0749 9.23643 10.7891C9.23643 11.4869 9.76148 12.0458 10.5723 12.0458H10.588C11.4315 12.0458 11.9566 11.4869 11.9566 10.7891C11.9402 10.0755 11.4321 9.53232 10.6043 9.53232Z" fill="white"/>
</svg>
