<svg width="93" height="50" viewBox="0 0 93 50" fill="none" xmlns="http://www.w3.org/2000/svg">
<path d="M2.99428 26.7652C4.67406 28.2929 6.81752 29.0689 9.36999 29.0689C10.6254 29.0689 11.9071 28.8381 13.1823 28.3808C14.4727 27.9192 15.586 27.218 16.4893 26.2904L16.6118 26.1651V19.9442H9.01129V22.1468H13.8516V25.0616C13.3529 25.4704 12.7142 25.8178 11.9531 26.0881C11.1088 26.3893 10.2317 26.5432 9.34593 26.5432C7.59835 26.5432 6.20292 25.9936 5.08088 24.8659C3.97197 23.7515 3.41204 22.2479 3.41204 20.397C3.41204 18.5901 3.9654 17.1217 5.05901 16.0314C6.15261 14.9389 7.69459 14.3872 9.64339 14.3872C10.6429 14.3872 11.5747 14.5608 12.4146 14.9038C13.2479 15.2445 13.9172 15.6731 14.4049 16.1765L14.7221 16.504L14.7352 16.5172L16.4565 14.4487L16.4675 14.4377L16.1503 14.163C14.3918 12.6352 12.1959 11.8637 9.61933 11.8637C6.87001 11.8637 4.6325 12.6506 2.96804 14.2047C1.29483 15.7655 0.44619 17.8713 0.44619 20.4652C0.44619 23.1074 1.30357 25.2264 2.99428 26.7652Z" fill="white"/>
<path d="M24.9429 15.9963C22.9613 15.9963 21.3187 16.5964 20.0632 17.779C18.7968 18.9682 18.156 20.5729 18.156 22.5447C18.156 24.5032 18.8012 26.0991 20.0764 27.2883C21.3406 28.471 22.9788 29.0689 24.9451 29.0689C26.8961 29.0689 28.5255 28.4688 29.7897 27.2883C31.0627 26.0991 31.7079 24.5032 31.7079 22.5447C31.7079 20.5883 31.0627 18.9902 29.7897 17.79C28.5234 16.5986 26.8939 15.9963 24.9429 15.9963ZM28.9455 22.5425C28.9455 23.8196 28.5824 24.8 27.8344 25.5364C27.0842 26.2772 26.1371 26.6355 24.9407 26.6355C23.7421 26.6355 22.7972 26.2772 22.047 25.5364C21.299 24.8 20.9359 23.8196 20.9359 22.5425C20.9359 21.2499 21.299 20.2585 22.047 19.5134C22.7951 18.7682 23.7421 18.4055 24.9385 18.4055C26.1349 18.4055 27.0798 18.7726 27.83 19.5243C28.5824 20.2761 28.9455 21.2653 28.9455 22.5425Z" fill="white"/>
<path d="M18.5475 37.0879H15.9294L14.1578 43.0779L13.272 46.2521L10.6648 37.0065L10.6626 36.9955H7.99861L6.22698 43.0845L5.34334 46.2367L4.45534 43.0801L2.70995 37.0988L2.70776 37.0879H0L3.7948 49.9187L3.79699 49.9297H6.77159L8.47761 44.2539L9.28906 41.3721L10.0677 44.2364L11.7475 49.9187L11.7497 49.9297H14.7024L18.5409 37.1076L18.5475 37.0879Z" fill="white"/>
<path d="M25.1463 36.9274C23.1647 36.9274 21.5221 37.5275 20.2667 38.7101C19.0003 39.8993 18.3594 41.504 18.3594 43.4758C18.3594 45.4344 19.0046 47.0303 20.2798 48.2195C21.544 49.4021 23.1822 50 25.1485 50C27.0995 50 28.729 49.3999 29.9932 48.2195C31.2661 47.0303 31.9135 45.4344 31.9135 43.4758C31.9135 41.5194 31.2683 39.9213 29.9953 38.7211C28.729 37.5297 27.0973 36.9274 25.1463 36.9274ZM29.1511 43.4736C29.1511 44.7507 28.788 45.7311 28.04 46.4675C27.2898 47.2083 26.3427 47.5666 25.1463 47.5666C23.9477 47.5666 23.0028 47.2061 22.2526 46.4675C21.5046 45.7311 21.1415 44.7507 21.1415 43.4736C21.1415 42.181 21.5046 41.1897 22.2526 40.4445C23.0007 39.6993 23.9477 39.3366 25.1441 39.3366C26.3405 39.3366 27.2854 39.7037 28.0356 40.4555C28.7858 41.2073 29.1511 42.1964 29.1511 43.4736Z" fill="white"/>
<path d="M46.8565 36.9274C45.0433 36.9274 43.7091 37.5561 42.8955 38.7937C42.5762 38.2793 42.1584 37.866 41.6532 37.5693C40.9314 37.1428 40.1134 36.9274 39.2232 36.9274C37.8583 36.9274 36.756 37.345 35.9467 38.1694L35.9074 37.1032V37.0879H33.4358V49.8176H36.1742V42.5855C36.1742 41.5788 36.4148 40.772 36.8872 40.1829C37.3444 39.6136 37.9743 39.3366 38.8163 39.3366C39.5228 39.3366 40.0696 39.5454 40.4896 39.9741C40.9117 40.4049 41.1173 41.005 41.1173 41.8096V49.8176H43.8316V42.5855C43.8316 41.5919 44.0613 40.783 44.5162 40.1851C44.9493 39.6136 45.5814 39.3366 46.4497 39.3366C48.0201 39.3366 48.7506 40.1939 48.7506 42.036V49.8154H51.465V41.9436C51.465 40.2818 51.0494 39.0157 50.2292 38.1826C49.4046 37.3494 48.2716 36.9274 46.8565 36.9274Z" fill="white"/>
<path d="M60.5506 36.9274C59.4264 36.9274 58.3918 37.1692 57.4798 37.6506C56.9767 37.9144 56.5349 38.2441 56.1609 38.631V31.3352H53.4247V49.8197H55.9531L56.0559 48.1975C56.4452 48.6437 56.9133 49.0108 57.4492 49.2834C58.3547 49.745 59.3673 49.9802 60.4587 49.9802C62.3288 49.9802 63.8664 49.3559 65.0278 48.1227C66.1827 46.8962 66.7688 45.3267 66.7688 43.456C66.7688 41.6029 66.2002 40.0378 65.0781 38.8046C63.9473 37.5583 62.4229 36.9274 60.5506 36.9274ZM63.9867 43.4516C63.9867 44.7178 63.6258 45.7025 62.8822 46.4631L62.8778 46.4675C62.1385 47.2237 61.2199 47.5908 60.0738 47.5908C58.9102 47.5908 57.9806 47.2171 57.2304 46.4521C56.4802 45.685 56.115 44.7024 56.115 43.4516C56.115 42.2162 56.478 41.238 57.2217 40.4599C57.9631 39.6883 58.8883 39.3124 60.0497 39.3124C61.2286 39.3124 62.1582 39.6773 62.8931 40.4291C63.628 41.1831 63.9867 42.1723 63.9867 43.4516Z" fill="white"/>
<path d="M79.0041 38.642C78.6366 38.2419 78.197 37.899 77.6983 37.6286C76.8125 37.1472 75.7779 36.9032 74.6231 36.9032C72.6918 36.9032 71.1301 37.5341 69.9818 38.7761C68.8445 40.0092 68.2671 41.5985 68.2671 43.4956C68.2671 45.3794 68.8336 46.9489 69.9469 48.1601C71.0711 49.3801 72.6131 49.9978 74.5312 49.9978C75.6555 49.9978 76.69 49.756 77.6021 49.2768C78.1423 48.9932 78.6126 48.6173 79.0041 48.1557L79.1069 49.8154H81.6375V37.0857H79.0784L79.0041 38.642ZM78.945 43.4736C78.945 44.7068 78.5732 45.674 77.8099 46.4345L77.8055 46.4389C77.0421 47.1973 76.1345 47.5666 75.0321 47.5666C73.8357 47.5666 72.8974 47.2083 72.1647 46.4697C71.4298 45.7333 71.0733 44.7529 71.0733 43.4736C71.0733 42.1635 71.4276 41.1677 72.1537 40.4291C72.8799 39.6927 73.8204 39.3344 75.0321 39.3344C76.1651 39.3344 77.0793 39.7103 77.8274 40.4841C78.5776 41.2622 78.945 42.2404 78.945 43.4736Z" fill="white"/>
<path d="M92.9278 47.3468V47.3292L92.4445 47.4149C91.6111 47.5622 90.8259 47.637 90.1107 47.637C89.7892 47.637 89.5267 47.5842 89.3321 47.4809C89.1593 47.3886 89.039 47.2633 88.9646 47.0984C88.8684 46.8874 88.8071 46.6873 88.7831 46.5005C88.7546 46.2939 88.7415 46.0367 88.7415 45.7355V39.3828H92.8994V37.0879H88.7415V33.3663H86.1847V35.9184C86.1847 36.3427 86.1037 36.6526 85.9463 36.8373C85.8041 37.0043 85.5241 37.0879 85.1108 37.0879H83.2079V39.3828H86.025V45.874C86.025 49.2658 88.0482 49.978 89.7454 49.978C91.0162 49.978 91.9676 49.8989 92.6588 49.7384L92.9869 49.6615L93 49.6593L92.9278 47.3468Z" fill="white"/>
<path d="M91.7008 16.7964C91.6133 14.5894 90.8828 12.444 89.4698 10.2348C87.6326 7.36179 85.0889 4.91521 81.9109 2.96542L79.8549 3.97219L79.7587 4.8075C79.6296 4.73935 79.5006 4.68 79.3715 4.61406C79.3715 4.60966 79.3715 4.60746 79.3693 4.60307C75.9398 2.55656 71.1061 0.490261 65.1634 0.0726058C61.782 -0.1626 53.16 -0.13842 46.1129 5.20537C40.9729 9.10275 38.5779 14.0707 38.9913 19.9706C38.9957 20.0321 38.9979 20.1069 39.0001 20.2563C39.0001 20.2563 39.0154 20.9576 38.8841 21.2609C38.8776 21.2741 38.8732 21.2851 38.8732 21.2851C38.8426 21.3444 38.7923 21.4214 38.7901 21.428C38.7704 21.4588 38.7573 21.4763 38.7092 21.5445C38.6807 21.5841 38.6589 21.617 38.6436 21.6368C38.6457 21.6368 38.6457 21.6368 38.6479 21.6346C38.1711 22.3226 37.6702 23.3756 37.7009 24.7406C37.7599 27.2949 39.6387 28.7084 40.0149 28.9656L42.0797 28.2314C42.3202 27.4224 42.6899 26.8531 43.1754 26.5388C43.5801 26.2772 43.9672 26.253 44.7371 26.2266C45.3211 26.2068 46.0472 26.1827 46.8959 25.9782C47.7576 25.7716 48.591 25.4155 49.3893 24.9143C49.5096 25.2594 49.6693 25.6243 49.8814 25.9958C50.905 27.7939 52.5367 28.671 53.4356 29.0601H57.6766V26.297C57.3245 26.0815 57.0817 25.732 57.027 25.332C56.992 25.0682 57.0489 24.8308 57.132 24.6417C57.1473 24.6439 57.1604 24.6439 57.1757 24.6461C57.2064 24.6483 57.2392 24.6505 57.2698 24.6549C57.2829 24.6571 57.2982 24.6593 57.3114 24.6593V24.6571C58.4859 24.767 59.6757 24.811 60.8656 24.7868C60.9509 25 61.0449 25.2111 61.1477 25.4155C61.2068 25.532 61.2768 25.6397 61.3402 25.7518C61.3489 25.7672 61.3577 25.7848 61.3686 25.8002C61.4233 25.8925 61.478 25.9848 61.5392 26.0749C61.5633 26.1101 61.583 26.1497 61.607 26.1849C62.191 27.0597 62.9675 27.7851 63.9145 28.3435C64.0917 28.4578 64.2951 28.5743 64.5248 28.6842C64.9513 28.8864 65.3493 29.0051 65.6796 29.0755H69.914V26.3783C69.0282 25.721 68.7264 24.9737 68.757 24.7626C68.827 24.5318 69.0129 24.2922 69.0873 24.2109C69.1245 24.1757 69.166 24.1405 69.2076 24.1076L73.3851 23.9603C74.0369 24.6527 74.7478 25.288 75.5045 25.8529C78.5688 28.1412 81.5697 28.7018 82.3877 28.8337C83.4507 29.0073 84.378 29.0381 85.0998 29.0249H88.7262V26.2728C88.4922 26.2376 88.2253 26.1783 87.9366 26.0815C87.8666 26.0574 87.8054 26.031 87.7398 26.0046C87.2258 25.7914 85.9353 25.1539 85.2704 23.9009C85.266 23.8987 85.2617 23.8965 85.2595 23.8921C85.1042 23.602 84.9773 23.2767 84.8986 22.914C84.7805 22.3732 84.7958 21.8698 84.8658 21.4368C87.6348 22.0633 89.8701 21.5819 90.9834 20.0673C91.5236 19.3265 91.7598 18.256 91.7008 16.7964ZM53.8096 26.3321C53.3066 26.0046 52.7007 25.477 52.2502 24.6637C52.0467 24.2988 51.9133 23.9383 51.8215 23.602C52.4689 23.78 53.1207 23.9383 53.7725 24.079C53.989 24.1252 54.2055 24.1669 54.4221 24.2109C54.3105 24.6505 54.2624 25.1495 54.3368 25.7013C54.3674 25.9167 54.4133 26.1277 54.4746 26.3321H53.8096ZM87.4992 16.6579C87.0748 17.3525 86.7927 18.1417 86.6658 18.955C86.0141 18.9089 85.242 18.7616 84.389 18.4758C84.2687 18.4538 84.1199 18.4363 83.9471 18.4384C83.7656 18.4406 83.6081 18.4648 83.4835 18.4934C83.2101 18.5967 82.5101 18.8209 81.6418 18.6253C80.756 18.4275 80.1852 17.8999 79.9227 17.6031L77.8908 19.4122C78.3698 19.9574 79.4174 20.9246 81.0535 21.2895C81.4297 21.373 81.7884 21.417 82.1274 21.428C82.064 22.0501 82.0815 22.7491 82.2411 23.4943C82.3811 24.1449 82.6129 24.7187 82.8907 25.2264C82.9367 25.31 82.9826 25.3935 83.0307 25.4748C83.0591 25.5232 83.0898 25.5694 83.1182 25.6177C83.1751 25.7078 83.2341 25.7936 83.2932 25.8793C83.3522 25.9628 83.4113 26.042 83.4725 26.1189C83.5031 26.1585 83.5359 26.2024 83.5666 26.2398C83.315 26.2134 83.0635 26.1805 82.8142 26.1409C81.8999 25.9914 79.5137 25.4529 77.1187 23.6635C76.3422 23.0832 75.6248 22.415 74.984 21.6786C74.9184 21.5928 74.7762 21.428 74.5356 21.3181C74.2666 21.1928 74.0216 21.2016 73.9122 21.2126C72.1865 21.2741 70.4608 21.3335 68.7351 21.395C68.4092 21.4851 67.7618 21.7093 67.1582 22.2831C66.9548 22.4765 66.4298 23.048 66.152 23.9713C65.9311 24.7033 66.0427 25.5364 66.4189 26.3453H65.9508C65.3362 26.0662 64.4526 25.532 63.8292 24.6197C63.792 24.5626 63.7549 24.5032 63.7199 24.4417C63.7067 24.4219 63.6958 24.3999 63.6827 24.3801C62.9128 23.0129 62.7203 21.0191 63.8183 19.5947C64.995 18.0692 67.0357 18.0516 67.2544 18.0516L67.285 15.3236C66.6813 15.3236 63.6127 15.4115 61.6726 17.9241C60.6906 19.1946 60.3144 20.652 60.3363 22.0589C59.4001 22.0633 58.464 22.0259 57.5388 21.938C56.4649 21.8149 55.3844 21.639 54.3302 21.4104C53.7047 21.2763 53.0769 21.1202 52.4558 20.9488C53.0026 19.0386 52.8582 16.9151 51.9746 15.1412L49.549 16.3612C50.3626 17.9944 50.2204 20.0761 49.2099 21.5906C48.2738 22.4897 47.2808 23.0744 46.2572 23.3206C45.6732 23.4613 45.1702 23.4789 44.6365 23.4965C43.7529 23.5272 42.7489 23.5624 41.6991 24.2417C41.2507 24.5318 40.857 24.8967 40.518 25.332C40.4524 25.1319 40.4108 24.9121 40.4064 24.6747C40.3824 23.6921 40.9751 23.0173 41.1567 22.8348C41.2201 22.7337 41.3163 22.5732 41.4104 22.3644C41.9353 21.2038 41.7319 20.0673 41.6881 19.7771C41.5132 18.6297 41.3863 17.0536 42.3837 14.2487C43.3001 11.6702 45.0761 9.39731 47.738 7.37938C54.0524 2.59173 61.8892 2.57414 64.9666 2.79176C70.0781 3.15007 74.295 4.84926 77.3987 6.61221L77.3812 6.64958C76.7862 6.53307 76.1782 6.5023 75.568 6.56605L74.3628 8.06741C74.4394 8.79061 74.5815 9.51162 74.7849 10.2084C74.9709 10.8437 75.2093 11.4702 75.4958 12.0681L77.9411 10.8855C77.7245 10.4305 77.5408 9.95785 77.3987 9.47425C77.8798 9.6567 78.2407 9.92048 78.4704 10.1271C78.7591 9.62592 79.3081 8.82798 80.2442 8.12896C80.9922 7.57062 81.7162 7.28046 82.2193 7.12219L82.2892 6.51109C84.284 8.00366 85.9244 9.74682 87.1798 11.7076C87.7157 12.5451 88.385 13.7277 88.7415 15.1961C88.3172 15.5654 87.8775 16.0424 87.4992 16.6579Z" fill="white"/>
<path d="M85.5569 14.1564C85.3535 13.7937 85.0145 13.5233 84.6274 13.4156C84.0543 13.2551 83.5207 13.4749 83.2144 13.7343L82.8164 14.0707L82.9148 14.585C82.9498 14.7719 83.1182 15.4093 83.7875 15.7413C84.0259 15.86 84.2665 15.9061 84.494 15.9061C84.8155 15.9061 85.1064 15.8116 85.3207 15.6863L85.7822 15.4181L85.7625 14.8818C85.7516 14.6268 85.6794 14.374 85.5569 14.1564Z" fill="white"/>
</svg>
