<svg width="35" height="35" viewBox="0 0 35 35" fill="none" xmlns="http://www.w3.org/2000/svg">
<path d="M15.1074 30.0781C15.1074 30.8333 14.4954 31.4453 13.7402 31.4453C11.8729 31.4453 10.0467 31.0055 8.31261 30.1379C6.69601 29.3297 5.23323 28.1886 3.96484 26.7475C1.44516 23.8844 0 20.1425 0 16.4816V6.891C0 6.3524 0.316162 5.86401 0.807495 5.64344L13.1199 0.119698C13.4745 -0.0391843 13.8796 -0.0399854 14.2348 0.117828L26.6684 5.64157C27.1622 5.86081 27.4805 6.35053 27.4805 6.891V11.1426C27.4805 11.8978 26.8684 12.5098 26.1133 12.5098C25.3581 12.5098 24.7461 11.8978 24.7461 11.1426V7.77967L13.6823 2.86448L2.73438 7.77593V16.4816C2.73438 22.882 7.98016 28.7109 13.7402 28.7109C14.4954 28.7109 15.1074 29.323 15.1074 30.0781ZM32.6074 20.3711C31.7946 20.3711 31.0768 20.777 30.6445 21.3965H15.293C14.8607 20.777 14.1429 20.3711 13.3301 20.3711C12.0088 20.3711 10.9375 21.4422 10.9375 22.7637C10.9375 24.0849 12.0088 25.1563 13.3301 25.1563C14.1429 25.1563 14.8607 24.7504 15.293 24.1309H30.6445C31.0768 24.7504 31.7946 25.1563 32.6074 25.1563C33.9287 25.1563 35 24.0849 35 22.7637C35 21.4422 33.9287 20.3711 32.6074 20.3711ZM29.3067 15.2442H21.5137C21.0814 14.6247 20.3636 14.2188 19.5508 14.2188C18.2295 14.2188 17.1582 15.2898 17.1582 16.6114C17.1582 17.9326 18.2295 19.0039 19.5508 19.0039C20.3636 19.0039 21.0814 18.5981 21.5137 17.9785H29.873C30.2357 17.9785 30.5833 17.8346 30.84 17.5783L33.5743 14.8439C33.8307 14.5873 33.9746 14.2396 33.9746 13.877V7.36337C34.5941 6.93105 35 6.21328 35 5.40045C35 4.07893 33.9287 3.00788 32.6074 3.00788C31.2862 3.00788 30.2148 4.07893 30.2148 5.40045C30.2148 6.21328 30.6207 6.93105 31.2402 7.36337V13.3106L29.3067 15.2442ZM32.6074 30.2148C32.5257 30.2148 32.4451 30.2191 32.3658 30.2271L30.088 27.9494C29.8314 27.6928 29.4837 27.5488 29.1211 27.5488H21.6333C21.197 27.0861 20.5786 26.7969 19.8926 26.7969C18.5713 26.7969 17.5 27.8679 17.5 29.1895C17.5 30.5107 18.5713 31.582 19.8926 31.582C20.8197 31.582 21.6232 31.0544 22.0203 30.2832H28.5547L30.2883 32.017C30.2405 32.2058 30.2148 32.4037 30.2148 32.6074C30.2148 33.9287 31.2862 35 32.6074 35C33.9287 35 35 33.9287 35 32.6074C35 31.2859 33.9287 30.2148 32.6074 30.2148Z" fill="white"/>
</svg>
