<svg width="38" height="35" viewBox="0 0 38 35" fill="none" xmlns="http://www.w3.org/2000/svg">
<path d="M20.7601 13.125C21.7574 13.125 22.479 14.0687 22.2082 15.0199L18.8371 26.8693C18.6541 27.5118 18.0624 27.9555 17.3884 27.9555C16.391 27.9555 15.6694 27.0118 15.9402 26.0606L19.3114 14.2112C19.4943 13.5688 20.086 13.125 20.7601 13.125ZM9.30634 20.2283L12.9773 17.1533C13.6052 16.6273 13.6876 15.6917 13.1611 15.064C12.6343 14.4366 11.6982 14.3543 11.0699 14.8803L7.39404 17.9594C7.39172 17.9614 7.38911 17.9635 7.3868 17.9655C6.60721 18.6271 6.16016 19.5925 6.16016 20.6144C6.16016 21.6363 6.60721 22.6018 7.3868 23.2633C7.38911 23.2651 7.39143 23.2674 7.39404 23.2694L11.0696 26.3482C11.3479 26.5814 11.686 26.6949 12.0226 26.6949C12.4464 26.6949 12.8674 26.5145 13.1608 26.1648C13.6876 25.5372 13.6052 24.6016 12.977 24.0755L9.30634 21.0005C9.1521 20.8681 9.12891 20.7019 9.12891 20.6144C9.12891 20.5269 9.1521 20.3607 9.30634 20.2283ZM28.6131 21.006L25.0114 24.0851C24.3887 24.6175 24.3156 25.5537 24.8488 26.1761C25.1425 26.5188 25.5585 26.6949 25.9774 26.6949C26.3187 26.6949 26.6619 26.5779 26.9417 26.3386L30.539 23.263C31.3186 22.6018 31.7656 21.6363 31.7656 20.6144C31.7656 19.5925 31.3186 18.6271 30.543 17.9692L26.9417 14.8902C26.3187 14.3575 25.3817 14.4305 24.8488 15.0527C24.3156 15.6752 24.3887 16.6113 25.0114 17.1437L28.6171 20.2263C28.7734 20.3589 28.7969 20.5264 28.7969 20.6144C28.7969 20.7022 28.7737 20.8696 28.6131 21.006ZM38 4.44915V21.6525C38 22.4717 37.3355 23.1356 36.5156 23.1356C35.6957 23.1356 35.0312 22.4717 35.0312 21.6525V8.97246H2.96875V29.0678C2.96875 30.7032 4.30063 32.0339 5.9375 32.0339H32.0625C33.6994 32.0339 35.0312 30.7032 35.0312 29.0678C35.0312 28.2486 35.6957 27.5847 36.5156 27.5847C37.3355 27.5847 38 28.2486 38 29.0678C38 32.3389 35.3365 35 32.0625 35H5.9375C2.66347 35 0 32.3389 0 29.0678V4.44915C0 1.99575 1.99753 0 4.45312 0H33.5469C36.0025 0 38 1.99575 38 4.44915ZM26.0508 4.44915C26.0508 5.26686 26.7167 5.9322 27.5352 5.9322C28.3536 5.9322 29.0195 5.26686 29.0195 4.44915C29.0195 3.63145 28.3536 2.9661 27.5352 2.9661C26.7167 2.9661 26.0508 3.63145 26.0508 4.44915ZM33.4727 2.9661C32.6542 2.9661 31.9883 3.63145 31.9883 4.44915C31.9883 5.26686 32.6542 5.9322 33.4727 5.9322C34.2911 5.9322 34.957 5.26686 34.957 4.44915C34.957 3.63145 34.2911 2.9661 33.4727 2.9661ZM2.96875 6.00636H23.3641C23.1821 5.52147 23.082 4.9969 23.082 4.44915C23.082 3.92922 23.1725 3.43042 23.3374 2.9661H4.45312C3.63469 2.9661 2.96875 3.63145 2.96875 4.44915V6.00636Z" fill="white"/>
</svg>
