<svg width="33" height="39" viewBox="0 0 33 39" fill="none" xmlns="http://www.w3.org/2000/svg">
<path d="M20.535 38.6325H5.99562C2.68954 38.6325 0 35.9247 0 32.5962V6.03632C0 2.7078 2.68954 0 5.99562 0H20.535C23.8411 0 26.5306 2.7078 26.5306 6.03632V8.38454C26.5306 9.21807 25.8596 9.89362 25.0317 9.89362C24.2038 9.89362 23.5328 9.21807 23.5328 8.38454V6.03632C23.5328 4.37221 22.1879 3.01816 20.535 3.01816H5.99562C4.34272 3.01816 2.99781 4.37221 2.99781 6.03632V32.5962C2.99781 34.2603 4.34272 35.6143 5.99562 35.6143H20.535C22.1879 35.6143 23.5328 34.2603 23.5328 32.5962V29.738C23.5328 28.9045 24.2038 28.229 25.0317 28.229C25.8596 28.229 26.5306 28.9045 26.5306 29.738V32.5962C26.5306 35.9247 23.8411 38.6325 20.535 38.6325ZM14.7642 31.7753C14.7642 30.9418 14.0932 30.2662 13.2653 30.2662C12.4374 30.2662 11.7664 30.9418 11.7664 31.7753C11.7664 32.6088 12.4374 33.2844 13.2653 33.2844C14.0932 33.2844 14.7642 32.6088 14.7642 31.7753ZM16.2631 6.87546C16.2631 6.04192 15.5921 5.36637 14.7642 5.36637H11.7664C10.9385 5.36637 10.2675 6.04192 10.2675 6.87546C10.2675 7.70899 10.9385 8.38454 11.7664 8.38454H14.7642C15.5921 8.38454 16.2631 7.70899 16.2631 6.87546ZM18.308 26.8708C18.9887 26.8708 19.6611 26.4192 19.8456 25.7655L23.25 13.7082C23.5234 12.7405 22.7948 11.78 21.7877 11.78C21.107 11.78 20.5095 12.2315 20.3251 12.8853L16.9206 24.9429C16.6475 25.9105 17.3009 26.8708 18.308 26.8708ZM14.4138 25.0487C14.9457 24.41 14.8626 23.458 14.2282 22.9227L10.5213 19.7934C10.3659 19.6587 10.3424 19.4898 10.3424 19.4008C10.3424 19.3118 10.3659 19.1429 10.5213 19.0082L14.2282 15.879C14.8626 15.3437 14.9457 14.3917 14.4138 13.753C13.8821 13.1146 12.9365 13.0306 12.3021 13.5661L8.5906 16.6992C8.58825 16.7013 8.58562 16.7033 8.58328 16.7057C7.79606 17.3786 7.34463 18.361 7.34463 19.4008C7.34463 20.4407 7.79606 21.4231 8.58328 22.096C8.58562 22.098 8.58796 22.1001 8.5906 22.1024L12.3021 25.2355C12.5829 25.4725 12.9245 25.5881 13.2644 25.5881C13.6924 25.5881 14.1175 25.4044 14.4138 25.0487ZM27.5801 25.2255L31.2126 22.096C31.9999 21.4231 32.4513 20.4407 32.4513 19.4008C32.4513 18.361 31.9999 17.3786 31.2167 16.7092L27.5801 13.5761C26.951 13.0341 26.0048 13.1084 25.4667 13.7415C24.9284 14.3749 25.0021 15.3275 25.631 15.8692L29.272 19.0059C29.4298 19.1409 29.4535 19.3112 29.4535 19.4008C29.4535 19.4901 29.43 19.6605 29.2679 19.799L25.631 22.9324C25.0021 23.4742 24.9284 24.4268 25.4667 25.0599C25.7633 25.4089 26.1834 25.5881 26.6064 25.5881C26.951 25.5881 27.2976 25.469 27.5801 25.2255Z" fill="white"/>
</svg>
