<svg width="35" height="35" viewBox="0 0 35 35" fill="none" xmlns="http://www.w3.org/2000/svg">
<path d="M32.9033 28.1806C34.2778 26.3092 34.9999 24.1345 34.9999 21.8425C34.9999 18.1735 33.0972 14.7672 29.8872 12.6415C29.5911 9.3726 28.0648 6.34107 25.5128 4.0053C22.6909 1.42249 18.9469 0 14.9707 0C10.9944 0 7.25055 1.42249 4.42855 4.00537C1.57278 6.61909 4.55858e-05 10.1039 4.55858e-05 13.8179C4.55858e-05 16.6745 0.92091 19.3827 2.67145 21.7L0.0997131 28.0617C-0.10885 28.5777 0.0160416 29.1685 0.4156 29.5557C0.676048 29.8082 1.01907 29.9414 1.36757 29.9414C1.55371 29.9414 1.74142 29.9033 1.91875 29.8252L9.25374 26.5918C10.1746 26.9438 11.1233 27.2071 12.0939 27.3814C13.088 29.0164 14.506 30.4011 16.2299 31.409C18.1545 32.5341 20.3767 33.1353 22.6624 33.1526C22.6959 33.1551 22.7294 33.1577 22.7637 33.1577C24.3439 33.1577 25.875 32.8848 27.3234 32.3456L33.0813 34.8838C33.2586 34.962 33.4463 35 33.6324 35C33.9809 35 34.324 34.8668 34.5844 34.6143C34.984 34.227 35.1089 33.6362 34.9003 33.1203L32.9033 28.1806ZM30.0704 28.4687L31.1033 31.0236L27.9016 29.6123C27.5554 29.4597 27.1616 29.4573 26.8135 29.6058C25.5587 30.1412 24.2149 30.4156 22.819 30.4227C22.8005 30.4219 22.7823 30.4199 22.7636 30.4199C20.0693 30.4199 17.5239 29.367 15.7456 27.6156C18.0003 27.5076 20.2103 26.9318 22.1807 25.9311C22.854 25.5892 23.1225 24.7663 22.7806 24.093C22.4387 23.4198 21.6157 23.1514 20.9425 23.4932C19.1286 24.4144 17.0636 24.9014 14.9707 24.9014C13.1521 24.9014 11.4012 24.5478 9.76692 23.8505C9.41904 23.702 9.02501 23.7043 8.67891 23.857L3.89665 25.9651L5.50678 21.9821C5.69771 21.5098 5.61027 20.9704 5.27976 20.5828C3.6146 18.6292 2.73441 16.2899 2.73441 13.8179C2.73441 7.70634 8.22357 2.73437 14.9707 2.73437C21.7178 2.73437 27.207 7.70634 27.207 13.8179C27.207 15.7918 26.6267 17.7297 25.5286 19.4219C25.1176 20.0553 25.298 20.9019 25.9314 21.3129C26.5647 21.724 27.4114 21.5436 27.8225 20.9101C28.7969 19.4084 29.4479 17.7502 29.749 16.0281C31.3505 17.5966 32.2655 19.6624 32.2655 21.8425C32.2655 23.7515 31.585 25.5589 30.2975 27.0693C29.967 27.457 29.8795 27.9964 30.0704 28.4687ZM16.2695 20.8496C16.2695 21.6047 15.6574 22.2168 14.9023 22.2168C14.1472 22.2168 13.5351 21.6047 13.5351 20.8496C13.5351 20.0945 14.1472 19.4824 14.9023 19.4824C15.6574 19.4824 16.2695 20.0945 16.2695 20.8496ZM20.0964 10.6061C20.0973 10.6251 20.0977 10.6441 20.0977 10.6633C20.0982 12.7214 18.8753 14.5735 16.9824 15.3816C16.5907 15.5489 16.3375 15.9434 16.3375 16.3865V16.4746C16.3375 17.2297 15.7254 17.8418 14.9703 17.8418C14.2152 17.8418 13.6031 17.2297 13.6031 16.4746V16.3866C13.6031 14.8464 14.5081 13.4649 15.9088 12.8669C16.7806 12.4947 17.3479 11.6483 17.363 10.7031C17.3626 10.69 17.3624 10.6768 17.3624 10.6636C17.3624 9.34464 16.2893 8.27154 14.9703 8.27154C13.6513 8.27147 12.5781 9.34457 12.5781 10.6636C12.5781 11.4187 11.966 12.0307 11.2109 12.0307C10.4558 12.0307 9.84375 11.4187 9.84375 10.6636C9.84375 7.83684 12.1435 5.5371 14.9703 5.5371C17.7778 5.5371 20.0656 7.80574 20.0964 10.6061Z" fill="white"/>
</svg>
