<svg width="37" height="34" viewBox="0 0 37 34" fill="none" xmlns="http://www.w3.org/2000/svg">
<path d="M32.6641 0H4.33594C1.9451 0 0 1.93886 0 4.32203V28.2373C0 31.4148 2.59347 34 5.78125 34H31.2188C34.4065 34 37 31.4148 37 28.2373C37 27.4416 36.3529 26.7966 35.5547 26.7966C34.7564 26.7966 34.1094 27.4416 34.1094 28.2373C34.1094 29.8261 32.8126 31.1186 31.2188 31.1186H5.78125C4.18736 31.1186 2.89062 29.8261 2.89062 28.2373V8.7161H34.1094V21.0339C34.1094 21.8296 34.7564 22.4746 35.5547 22.4746C36.3529 22.4746 37 21.8296 37 21.0339V4.32203C37 1.93886 35.0549 0 32.6641 0ZM26.8105 2.88136C27.6075 2.88136 28.2559 3.52764 28.2559 4.32203C28.2559 5.11642 27.6075 5.76271 26.8105 5.76271C26.0136 5.76271 25.3652 5.11642 25.3652 4.32203C25.3652 3.52764 26.0136 2.88136 26.8105 2.88136ZM34.0371 4.32203C34.0371 5.11642 33.3887 5.76271 32.5918 5.76271C31.7949 5.76271 31.1465 5.11642 31.1465 4.32203C31.1465 3.52764 31.7949 2.88136 32.5918 2.88136C33.3887 2.88136 34.0371 3.52764 34.0371 4.32203ZM2.89062 4.32203C2.89062 3.52764 3.53899 2.88136 4.33594 2.88136H22.7232C22.5628 3.33229 22.4746 3.817 22.4746 4.32203C22.4746 4.85408 22.5721 5.36364 22.7493 5.83475H2.89062V4.32203ZM16.9824 25.7161C16.9824 26.5118 16.3354 27.1568 15.5371 27.1568H7.1543C6.35605 27.1568 5.70898 26.5118 5.70898 25.7161C5.70898 24.9204 6.35605 24.2754 7.1543 24.2754H15.5371C16.3354 24.2754 16.9824 24.9204 16.9824 25.7161ZM16.9824 14.1907C16.9824 14.9864 16.3354 15.6314 15.5371 15.6314H7.1543C6.35605 15.6314 5.70898 14.9864 5.70898 14.1907C5.70898 13.395 6.35605 12.75 7.1543 12.75H15.5371C16.3354 12.75 16.9824 13.395 16.9824 14.1907ZM16.9824 19.9534C16.9824 20.7491 16.3354 21.3941 15.5371 21.3941H7.1543C6.35605 21.3941 5.70898 20.7491 5.70898 19.9534C5.70898 19.1577 6.35605 18.5127 7.1543 18.5127H15.5371C16.3354 18.5127 16.9824 19.1577 16.9824 19.9534ZM31.291 14.1907C31.291 14.9864 30.6439 15.6314 29.8457 15.6314H21.4629C20.6646 15.6314 20.0176 14.9864 20.0176 14.1907C20.0176 13.395 20.6646 12.75 21.4629 12.75H29.8457C30.6439 12.75 31.291 13.395 31.291 14.1907ZM29.8457 21.3941H21.4629C20.6646 21.3941 20.0176 20.7491 20.0176 19.9534C20.0176 19.1577 20.6646 18.5127 21.4629 18.5127H29.8457C30.6439 18.5127 31.291 19.1577 31.291 19.9534C31.291 20.7491 30.6439 21.3941 29.8457 21.3941ZM26.9551 24.2754C27.7533 24.2754 28.4004 24.9204 28.4004 25.7161C28.4004 26.5118 27.7533 27.1568 26.9551 27.1568H21.4629C20.6646 27.1568 20.0176 26.5118 20.0176 25.7161C20.0176 24.9204 20.6646 24.2754 21.4629 24.2754H26.9551Z" fill="white"/>
</svg>
