<svg width="173" height="56" viewBox="0 0 173 56" fill="none" xmlns="http://www.w3.org/2000/svg">
<path d="M65.2296 23.793C65.2296 17.8872 63.7167 14.8553 60.6908 14.6893C59.4868 14.626 58.3113 14.8395 57.1677 15.3336C56.255 15.6973 55.6405 16.057 55.3174 16.4207V30.517C57.2529 31.8689 58.9719 32.4974 60.4706 32.3986C63.6421 32.1654 65.2296 29.2995 65.2296 23.793ZM68.9622 24.0381C68.9622 27.0384 68.3301 29.5287 67.0586 31.5092C65.6416 33.7505 63.6776 34.9048 61.1667 34.968C59.2737 35.0352 57.324 34.3751 55.3174 32.9916V45.8031L52.0713 44.5145V16.0768C52.604 15.3494 53.2895 14.7249 54.1205 14.1952C56.0525 12.9421 58.4001 12.2977 61.1631 12.2661L61.2093 12.3175C63.7344 12.2819 65.6806 13.4362 67.048 15.7764C68.3229 17.9228 68.9622 20.6741 68.9622 24.0381Z" fill="#535970"/>
<path d="M88.8 32.446C88.8 36.4702 88.4377 39.257 87.7132 40.8066C86.9852 42.3562 85.6001 43.5934 83.5544 44.5145C81.8959 45.2418 80.1023 45.6371 78.1774 45.7043L77.6412 43.4274C79.598 43.1309 80.976 42.8345 81.7751 42.538C83.3484 41.945 84.4281 41.0359 85.0212 39.8183C85.4971 38.8261 85.7315 36.9327 85.7315 34.13V33.1892C83.5118 34.3119 81.1856 34.8692 78.7528 34.8692C77.1546 34.8692 75.7447 34.3119 74.53 33.1892C73.1663 31.9677 72.4844 30.4182 72.4844 28.5405V13.5034L75.7304 12.2661V27.4021C75.7304 29.0188 76.1992 30.264 77.1368 31.1376C78.0744 32.0112 79.2891 32.4302 80.7771 32.3986C82.2652 32.363 83.8598 31.7227 85.5539 30.4696V12.8116H88.8V32.446Z" fill="#535970"/>
<path d="M101.471 34.7704C101.083 34.806 100.728 34.8218 100.402 34.8218C98.5654 34.8218 97.1342 34.3356 96.1113 33.3592C95.0921 32.3828 94.5807 31.0348 94.5807 29.3153V15.0846H92.3574V12.8116H94.5807V6.77544L97.8232 5.49072V12.8116H101.471V15.0846H97.8232V29.2165C97.8232 30.5723 98.1499 31.5329 98.8034 32.0942C99.3645 32.5567 100.256 32.8216 101.471 32.8888V34.7704Z" fill="#535970"/>
<path d="M121.126 34.4739H117.88V20.5278C117.88 19.1087 117.582 17.8872 116.989 16.8673C116.303 15.7131 115.352 15.1359 114.13 15.1359C112.642 15.1359 110.781 16.0095 108.547 17.7568V34.4739H105.301V1.13846L108.547 0V15.1834C110.621 13.5034 112.887 12.6614 115.348 12.6614C117.067 12.6614 118.459 13.3057 119.525 14.5904C120.594 15.8751 121.126 17.4761 121.126 19.3893V34.4739Z" fill="#535970"/>
<path d="M138.378 23.2238C138.378 20.9548 137.991 19.081 137.221 17.5987C136.304 15.7922 134.88 14.8395 132.955 14.7407C129.397 14.9699 127.621 17.8082 127.621 23.2475C127.621 25.7418 127.99 27.825 128.736 29.4971C129.688 31.6278 131.116 32.6793 133.019 32.6437C136.592 32.6121 138.378 29.4734 138.378 23.2238ZM141.933 23.2475C141.933 26.4771 141.191 29.1651 139.71 31.3115C138.08 33.715 135.828 34.9206 132.955 34.9206C130.107 34.9206 127.887 33.715 126.285 31.3115C124.833 29.1651 124.108 26.4771 124.108 23.2475C124.108 20.2116 124.893 17.658 126.463 15.5787C128.122 13.3729 130.302 12.2661 132.998 12.2661C135.693 12.2661 137.888 13.3729 139.579 15.5787C141.148 17.658 141.933 20.2116 141.933 23.2475Z" fill="#535970"/>
<path d="M160.545 34.4739H157.299V19.7372C157.299 18.1205 156.862 16.8595 155.988 15.9503C155.114 15.0451 153.95 14.6063 152.497 14.6419C150.956 14.6735 149.489 15.2348 148.097 16.3219V34.4739H144.851V15.8752C146.719 14.3612 148.438 13.3729 150.007 12.9104C151.488 12.4796 152.795 12.2661 153.921 12.2661C154.692 12.2661 155.416 12.3491 156.098 12.5151C157.373 12.8432 158.41 13.452 159.209 14.3454C160.101 15.3336 160.545 16.5195 160.545 17.907V34.4739Z" fill="#535970"/>
<path d="M20.0105 1.27186C18.3404 1.28049 16.7454 1.43903 15.3421 1.71543C11.2079 2.52837 10.4573 4.22991 10.4573 7.36785V11.5121H20.2268V12.8935H10.4573H6.79087C3.95157 12.8935 1.4654 14.793 0.687752 18.4065C-0.209249 22.5484 -0.249036 25.1331 0.687752 29.4579C1.38221 32.6771 3.04066 34.9709 5.87996 34.9709H9.23895V30.0028C9.23895 26.4137 12.0289 23.2478 15.3421 23.2478H25.1002C27.8165 23.2478 29.985 20.7585 29.985 17.7222V7.36785C29.985 4.42095 27.7514 2.20726 25.1002 1.71543C23.422 1.40448 21.6806 1.26322 20.0105 1.27186ZM14.7272 4.60501C15.7363 4.60501 16.5604 5.53723 16.5604 6.68347C16.5604 7.82565 15.7363 8.74926 14.7272 8.74926C13.7145 8.74926 12.894 7.82565 12.894 6.68347C12.894 5.53723 13.7145 4.60501 14.7272 4.60501Z" fill="url(#paint0_linear)"/>
<path d="M31.2041 12.8938V17.7224C31.2041 21.466 28.3526 24.6169 25.1009 24.6169H15.3428C12.6699 24.6169 10.458 27.1631 10.458 30.1425V40.4968C10.458 43.4437 12.7603 45.1771 15.3428 46.0225C18.4353 47.0346 21.4008 47.2175 25.1009 46.0225C27.5605 45.2299 29.9857 43.6348 29.9857 40.4968V36.3526H20.2275V34.9712H29.9857H34.8705C37.7098 34.9712 38.7678 32.7668 39.7552 29.4582C40.7752 26.052 40.7318 22.7763 39.7552 18.4068C39.0536 15.2607 37.7134 12.8938 34.8705 12.8938H31.2041ZM25.7158 39.1154C26.7285 39.1154 27.549 40.039 27.549 41.1812C27.549 42.3274 26.7285 43.2597 25.7158 43.2597C24.7067 43.2597 23.8826 42.3274 23.8826 41.1812C23.8826 40.039 24.7067 39.1154 25.7158 39.1154Z" fill="url(#paint1_linear)"/>
<path d="M166.865 9.59026H167.434V5.61735H168.782V5.1438H165.517V5.61735H166.865V9.59026ZM169.287 9.59026H169.773V5.96175L170.828 9.5898H171.37L172.469 5.97405V9.59026H173V5.1438H172.298L171.096 8.95311L170.071 5.1438H169.287V9.59026Z" fill="#646464"/>
<path opacity="0.44382" d="M33.4281 53.061C33.4281 53.432 33.0895 53.7995 32.4316 54.1423C31.7736 54.4851 30.8093 54.7966 29.5936 55.059C28.3779 55.3214 26.9346 55.5295 25.3462 55.6715C23.7578 55.8135 22.0554 55.8866 20.3361 55.8866C18.6169 55.8866 16.9144 55.8135 15.326 55.6715C13.7377 55.5295 12.2944 55.3214 11.0787 55.059C9.86299 54.7966 8.89864 54.4851 8.24071 54.1423C7.58278 53.7995 7.24414 53.432 7.24414 53.061C7.24414 52.6899 7.58278 52.3225 8.24071 51.9797C8.89864 51.6368 9.86299 51.3253 11.0787 51.063C12.2944 50.8006 13.7377 50.5924 15.326 50.4504C16.9144 50.3084 18.6169 50.2354 20.3361 50.2354C22.0554 50.2354 23.7578 50.3084 25.3462 50.4504C26.9346 50.5924 28.3779 50.8006 29.5936 51.063C30.8093 51.3253 31.7736 51.6368 32.4316 51.9797C33.0895 52.3225 33.4281 52.6899 33.4281 53.061Z" fill="url(#paint2_radial)"/>
<defs>
<linearGradient id="paint0_linear" x1="3.18864e-08" y1="1.27148" x2="24.516" y2="20.0408" gradientUnits="userSpaceOnUse">
<stop stop-color="#5A9FD4"/>
<stop offset="1" stop-color="#306998"/>
</linearGradient>
<linearGradient id="paint1_linear" x1="25.481" y1="40.8328" x2="16.2153" y2="29.1674" gradientUnits="userSpaceOnUse">
<stop stop-color="#FFD43B"/>
<stop offset="1" stop-color="#FFE873"/>
</linearGradient>
<radialGradient id="paint2_radial" cx="0" cy="0" r="1" gradientUnits="userSpaceOnUse" gradientTransform="translate(20.3361 53.061) rotate(-90) scale(2.82562 11.1584)">
<stop stop-color="#B8B8B8" stop-opacity="0.498039"/>
<stop offset="1" stop-color="#7F7F7F" stop-opacity="0"/>
</radialGradient>
</defs>
</svg>
