<svg width="38" height="33" viewBox="0 0 38 33" fill="none" xmlns="http://www.w3.org/2000/svg">
<path d="M38 16.5038C38 14.049 34.8475 11.7226 30.0143 10.2799C31.1296 5.47608 30.6339 1.65415 28.4497 0.430533C27.9462 0.143511 27.3575 0.0075531 26.7146 0.0075531V1.69192C27.0709 1.69192 27.3575 1.7599 27.5976 1.8883C28.651 2.47745 29.108 4.72076 28.7517 7.60609C28.6665 8.31609 28.5271 9.06386 28.3567 9.82673C26.8386 9.46418 25.181 9.18471 23.4382 9.00343C22.3926 7.60609 21.3082 6.33715 20.2161 5.22682C22.7411 2.9382 25.1113 1.68437 26.7224 1.68437V0C24.5923 0 21.8039 1.48043 18.9845 4.04852C16.1651 1.49554 13.3767 0.030213 11.2466 0.030213V1.71458C12.85 1.71458 15.2279 2.96086 17.753 5.23438C16.6686 6.3447 15.5842 7.60609 14.554 9.00343C12.8035 9.18471 11.1459 9.46418 9.6278 9.83429C9.44965 9.07896 9.31798 8.3463 9.22503 7.64385C8.86099 4.75853 9.31023 2.51522 10.3559 1.91852C10.5883 1.78256 10.8903 1.72213 11.2466 1.72213V0.0377661C10.596 0.0377661 10.0073 0.173724 9.49613 0.460746C7.31961 1.68437 6.83163 5.49874 7.95475 10.2875C3.13697 11.7377 0 14.0565 0 16.5038C0 18.9586 3.15247 21.285 7.98573 22.7276C6.87036 27.5315 7.36608 31.3534 9.55035 32.577C10.0538 32.864 10.6425 33 11.2931 33C13.4232 33 16.2116 31.5196 19.031 28.9515C21.8504 31.5045 24.6388 32.9698 26.7689 32.9698C27.4195 32.9698 28.0082 32.8338 28.5194 32.5468C30.6959 31.3232 31.1839 27.5088 30.0607 22.7201C34.863 21.2774 38 18.951 38 16.5038ZM27.9152 11.4658C27.6286 12.4401 27.2723 13.4447 26.8695 14.4493C26.552 13.845 26.2189 13.2408 25.8549 12.6365C25.4986 12.0323 25.119 11.4431 24.7395 10.8691C25.8394 11.0277 26.9005 11.2241 27.9152 11.4658ZM24.3677 19.51C23.7636 20.5296 23.1439 21.4965 22.501 22.3953C21.3469 22.4935 20.1773 22.5463 19 22.5463C17.8304 22.5463 16.6608 22.4935 15.5145 22.4028C14.8716 21.504 14.2442 20.5447 13.64 19.5326C13.0514 18.5431 12.5169 17.5386 12.0289 16.5264C12.5092 15.5143 13.0514 14.5022 13.6323 13.5127C14.2364 12.493 14.8561 11.5262 15.499 10.6274C16.6531 10.5292 17.8227 10.4763 19 10.4763C20.1696 10.4763 21.3392 10.5292 22.4855 10.6198C23.1284 11.5187 23.7558 12.4779 24.36 13.49C24.9486 14.4795 25.4831 15.4841 25.9711 16.4962C25.4831 17.5084 24.9486 18.5205 24.3677 19.51ZM26.8695 18.528C27.2878 19.5402 27.6441 20.5523 27.9384 21.5342C26.9238 21.7759 25.8549 21.9799 24.7472 22.1385C25.1268 21.5569 25.5063 20.9602 25.8626 20.3484C26.2189 19.7441 26.552 19.1323 26.8695 18.528ZM19.0155 26.5873C18.2952 25.8622 17.5748 25.054 16.8622 24.1703C17.5593 24.2005 18.2719 24.2232 18.9923 24.2232C19.7203 24.2232 20.4407 24.2081 21.1455 24.1703C20.4484 25.054 19.7281 25.8622 19.0155 26.5873ZM13.2528 22.1385C12.1529 21.9799 11.0917 21.7835 10.077 21.5418C10.3636 20.5674 10.7199 19.5628 11.1227 18.5583C11.4403 19.1625 11.7733 19.7668 12.1374 20.371C12.5014 20.9753 12.8732 21.5644 13.2528 22.1385ZM18.9768 6.42023C19.6971 7.14534 20.4174 7.95354 21.13 8.83726C20.4329 8.80705 19.7203 8.78439 19 8.78439C18.2719 8.78439 17.5516 8.7995 16.8467 8.83726C17.5438 7.95354 18.2642 7.14534 18.9768 6.42023ZM13.245 10.8691C12.8655 11.4507 12.4859 12.0474 12.1296 12.6592C11.7733 13.2634 11.4403 13.8677 11.1227 14.472C10.7044 13.4598 10.3481 12.4477 10.0538 11.4658C11.0685 11.2316 12.1374 11.0277 13.245 10.8691ZM6.23522 20.3257C3.49327 19.1852 1.71953 17.6896 1.71953 16.5038C1.71953 15.3179 3.49327 13.8148 6.23522 12.6818C6.90135 12.4024 7.62943 12.1531 8.38076 11.919C8.82226 13.3994 9.40318 14.9403 10.1235 16.5189C9.41092 18.09 8.83775 19.6233 8.404 21.0961C7.63718 20.862 6.90909 20.6052 6.23522 20.3257ZM10.4024 31.1192C9.34896 30.5301 8.89197 28.2868 9.24827 25.4015C9.33347 24.6915 9.47289 23.9437 9.6433 23.1808C11.1614 23.5434 12.819 23.8228 14.5618 24.0041C15.6074 25.4015 16.6918 26.6704 17.7839 27.7807C15.2589 30.0693 12.8887 31.3232 11.2776 31.3232C10.9291 31.3156 10.6347 31.2477 10.4024 31.1192ZM28.775 25.3637C29.139 28.249 28.6898 30.4923 27.6441 31.089C27.4117 31.225 27.1097 31.2854 26.7534 31.2854C25.15 31.2854 22.7721 30.0391 20.247 27.7656C21.3314 26.6553 22.4158 25.3939 23.446 23.9966C25.1965 23.8153 26.8541 23.5358 28.3722 23.1657C28.5503 23.9286 28.6898 24.6612 28.775 25.3637ZM31.757 20.3257C31.0909 20.6052 30.3628 20.8544 29.6115 21.0886C29.17 19.6081 28.5891 18.0673 27.8687 16.4887C28.5813 14.9176 29.1545 13.3843 29.5883 11.9114C30.3551 12.1456 31.0832 12.4024 31.7648 12.6818C34.5067 13.8224 36.2805 15.3179 36.2805 16.5038C36.2727 17.6896 34.499 19.1927 31.757 20.3257Z" fill="#2F8FFF"/>
<path d="M18.9923 19.9556C20.9472 19.9556 22.532 18.4102 22.532 16.5038C22.532 14.5974 20.9472 13.052 18.9923 13.052C17.0373 13.052 15.4525 14.5974 15.4525 16.5038C15.4525 18.4102 17.0373 19.9556 18.9923 19.9556Z" fill="#2F8FFF"/>
</svg>
