<svg width="32" height="32" viewBox="0 0 32 32" fill="none" xmlns="http://www.w3.org/2000/svg">
<path d="M32 0H0V32H32V0Z" fill="#F7DF1E"/>
<path d="M21.4921 25.0002C22.1367 26.0527 22.9753 26.8262 24.4584 26.8262C25.7044 26.8262 26.5004 26.2035 26.5004 25.3431C26.5004 24.312 25.6826 23.9468 24.3111 23.3469L23.5594 23.0243C21.3895 22.0999 19.948 20.9418 19.948 18.4935C19.948 16.2383 21.6663 14.5215 24.3518 14.5215C26.2637 14.5215 27.6381 15.1869 28.6286 16.9291L26.287 18.4326C25.7715 17.5082 25.2153 17.144 24.3518 17.144C23.471 17.144 22.9128 17.7027 22.9128 18.4326C22.9128 19.3347 23.4715 19.6999 24.7617 20.2586L25.5134 20.5807C28.0684 21.6763 29.5109 22.7932 29.5109 25.3045C29.5109 28.0118 27.3842 29.4949 24.528 29.4949C21.7354 29.4949 19.9312 28.1642 19.0484 26.4199L21.4921 25.0002ZM10.8696 25.2608C11.342 26.0989 11.7717 26.8075 12.8049 26.8075C13.7928 26.8075 14.416 26.4209 14.416 24.9179V14.6932H17.423V24.9586C17.423 28.0722 15.5975 29.4894 12.9329 29.4894C10.5252 29.4894 9.13095 28.2434 8.42188 26.7427L10.8696 25.2608Z" fill="black"/>
</svg>
