<svg width="145" height="51" viewBox="0 0 145 51" fill="none" xmlns="http://www.w3.org/2000/svg">
<path fill-rule="evenodd" clip-rule="evenodd" d="M7.95239 24.9483C7.92719 29.7858 11.4412 32.6697 17.0488 31.3585V18.5381C11.3703 16.7924 7.97614 20.3241 7.95239 24.9483ZM17.2204 3.60184e-05H24.9437V36.9026C17.5406 38.1243 10.4503 38.8992 5.37794 36.0362C-1.15317 32.3501 -1.67822 20.6365 3.48986 15.4194C6.11016 12.7746 11.3853 10.9125 17.0488 12.1277V0.519907C17.034 0.273896 17.0203 0.0289875 17.2204 3.60184e-05Z" fill="black"/>
<path fill-rule="evenodd" clip-rule="evenodd" d="M37.4727 8.1428H29.7494V0H37.4727V8.1428Z" fill="black"/>
<path fill-rule="evenodd" clip-rule="evenodd" d="M130.153 31.705C138.572 35.0078 139.504 16.4923 131.011 18.1913C125.737 19.2465 125.906 30.0392 130.153 31.705ZM130.496 11.7811C136.926 11.0871 141.777 13.9513 143.712 18.3647C147.014 25.8948 143.53 34.5354 138.22 37.0758C135.467 38.3926 132.585 38.518 129.981 38.2885C121.933 37.58 116.857 29.3006 119.684 20.097C120.126 18.6566 120.623 17.7754 120.885 17.3251C122.635 14.3225 125.588 12.3109 130.496 11.7811Z" fill="black"/>
<path fill-rule="evenodd" clip-rule="evenodd" d="M48.1139 28.7598C45.9777 32.3837 51.3449 33.2519 54.8072 32.2249V26.854C52.1469 27.2289 49.1189 27.0545 48.1139 28.7598ZM61.6725 37.2491C55.2926 37.6196 45.597 39.8133 42.1067 35.5167C40.0562 32.992 40.2767 28.1768 42.1067 25.8145C44.4716 22.762 49.634 22.0963 54.2924 21.6565C54.7153 20.6053 54.4302 18.8951 53.9491 18.1912C49.6881 17.0956 45.4545 18.7933 42.4502 20.0969V14.0334C46.9878 11.9288 57.4982 9.71292 60.6428 14.5531C62.2944 17.0952 61.6725 21.5287 61.6725 25.4678V37.2491Z" fill="black"/>
<path fill-rule="evenodd" clip-rule="evenodd" d="M88.7902 37.5958H81.0668V27.547C81.0668 24.2385 81.597 20.0432 79.8651 18.7112C78.5088 17.6674 75.2911 18.1912 73.3435 18.7112V37.5958H65.62V13.5137C73.5152 11.4435 87.7666 9.22385 88.7902 19.2309C89.2949 24.1647 88.4162 31.5669 88.7902 37.5958Z" fill="black"/>
<path fill-rule="evenodd" clip-rule="evenodd" d="M100.289 29.2795C101.589 31.4021 105.108 32.198 108.013 30.8387C107.853 26.784 107.797 22.6245 107.841 18.3646C101.166 16.5844 97.1884 24.2162 100.289 29.2795ZM119.684 12.8207C118.996 14.8989 117.99 16.6551 117.109 18.5381C116.313 18.7181 115.623 18.2187 115.221 18.5381C115.045 26.9834 117.003 38.4321 113.676 44.5255C111.674 48.1943 107.986 50.548 102.349 50.936C98.2422 51.2187 95.0548 50.5413 92.051 49.3767V42.1001C95.5742 44.1766 104.477 45.8696 106.983 41.5803C107.72 40.3183 107.673 39.014 108.013 37.0758C106.399 37.1613 104.833 37.9156 102.864 37.9422C94.7694 38.0506 89.7618 31.5446 91.7078 22.5226C92.4604 19.0327 94.4861 16.2228 97.2001 14.5531C102.837 11.0852 111.501 11.3485 119.684 12.8207Z" fill="black"/>
<path fill-rule="evenodd" clip-rule="evenodd" d="M37.4727 12.266C37.464 18.007 37.4652 22.1324 37.4647 29.1069C37.1366 35.961 37.2129 41.4191 34.7267 44.6987C34.2364 45.3455 33.1951 46.2889 32.3238 46.9512C31.5922 47.5072 30.1977 48.6347 29.4061 48.6837C28.6081 48.7332 26.558 47.5655 25.6301 47.1243C24.4118 46.5451 23.2855 45.7759 22.0261 45.392C24.9639 43.5543 27.7526 42.1765 28.8911 38.4619C29.8813 35.2313 29.7494 30.5499 29.7494 25.9877C29.7494 21.4829 29.7693 16.2455 29.7693 12.2681L37.4727 12.266Z" fill="black"/>
</svg>
