<svg width="18" height="17" viewBox="0 0 18 17" fill="none" xmlns="http://www.w3.org/2000/svg">
<path d="M8.56107 0.80453C8.75059 0.45715 9.24941 0.457149 9.43893 0.80453L11.8227 5.17379C11.8949 5.30623 12.0231 5.39897 12.1715 5.42614L17.0871 6.32625C17.4787 6.39796 17.6335 6.87627 17.3582 7.16384L13.9182 10.757C13.8132 10.8668 13.7637 11.0183 13.7838 11.1689L14.4404 16.0872C14.4929 16.4803 14.0887 16.7751 13.7304 16.605L9.21444 14.461C9.07874 14.3966 8.92126 14.3966 8.78556 14.461L4.26961 16.605C3.91131 16.7751 3.50707 16.4803 3.55956 16.0872L4.21619 11.1689C4.23629 11.0183 4.18683 10.8668 4.08176 10.757L0.641828 7.16384C0.366525 6.87627 0.521346 6.39796 0.912938 6.32625L5.82847 5.42614C5.97688 5.39897 6.10508 5.30623 6.17734 5.17379L8.56107 0.80453Z" fill="#127889"/>
</svg>
