<svg width="109" height="34" viewBox="0 0 109 34" fill="none" xmlns="http://www.w3.org/2000/svg">
<path d="M70.5095 7.643C65.7195 7.666 61.8175 11.603 61.8395 16.505C61.8615 21.407 65.8025 25.307 70.5925 25.285C75.3825 25.263 79.2855 21.325 79.2625 16.425C79.2395 11.525 75.2995 7.622 70.5075 7.645L70.5095 7.643ZM70.5755 21.69C69.2175 21.698 67.9125 21.165 66.9475 20.21C65.9825 19.255 65.4475 17.954 65.4325 16.596C65.4175 15.238 65.9575 13.933 66.9125 12.968C67.8675 12.003 69.1685 11.468 70.5265 11.453C71.8845 11.438 73.1895 11.978 74.1545 12.933C75.1195 13.888 75.6545 15.189 75.6695 16.547C75.6835 19.272 73.2995 21.677 70.5755 21.691V21.69ZM89.9155 11.798C87.4105 11.81 85.4595 13.888 85.4715 16.393L85.5115 24.778L81.6995 24.796L81.6225 8.133L85.4345 8.115L85.4475 10.728C85.4475 10.728 87.0675 8.108 90.3355 8.093L91.4255 8.087L91.4435 11.789L89.9155 11.798ZM51.8895 8.275L54.7755 19.697L57.7715 8.247L61.5835 8.23L56.8675 24.925L53.1655 24.942L50.1715 13.304L47.2855 24.969L43.5825 24.986L38.6045 8.346L42.3065 8.329L45.6265 19.749L48.2965 8.301L51.8895 8.275ZM102.564 15.661C105.169 14.125 107.009 11.284 106.994 8.017L103.182 8.035C103.196 10.867 100.918 13.165 98.1965 13.175L97.6515 13.177L97.5915 0L93.7795 0.0179996L93.8965 24.738L97.7065 24.721L97.6705 16.881L98.1055 16.879C98.5415 16.877 98.9785 17.093 99.0895 17.419L104.459 24.689L108.924 24.669L102.564 15.661Z" fill="white"/>
<path d="M29.85 7.835C25.713 7.855 22.567 10.592 21.39 14.953C19.415 11.913 17.874 8.436 16.99 5.5L12.635 5.52L12.689 17.063C12.6938 18.1605 12.2626 19.215 11.4902 19.9946C10.7178 20.7743 9.66748 21.2154 8.57 21.221C7.47252 21.2258 6.41804 20.7946 5.63835 20.0222C4.85866 19.2498 4.41756 18.1995 4.412 17.102L4.357 5.559L0 5.579L0.0540004 17.122C0.0770004 21.912 3.904 25.708 8.588 25.685C13.272 25.662 17.066 21.833 17.044 17.042L17.034 15.082C17.912 16.819 19.01 18.665 20.217 20.294L17.554 33.047L22.018 33.027L23.938 23.761C25.685 24.843 27.638 25.486 29.934 25.475C34.726 25.452 38.629 21.515 38.604 16.505C38.5858 14.1967 37.6551 11.9894 36.0152 10.3649C34.3753 8.74032 32.1593 7.83049 29.851 7.834L29.85 7.835ZM29.912 21.012C28.17 21.02 26.425 20.266 25.004 19.074L25.431 17.331V17.231C25.751 15.377 26.713 12.215 29.981 12.201C31.1333 12.1991 32.2397 12.6524 33.0594 13.4622C33.8792 14.272 34.3459 15.3728 34.358 16.525C34.26 19.03 32.201 21 29.913 21.011L29.912 21.012Z" fill="#6FDA44"/>
</svg>
