<svg width="116" height="76" viewBox="0 0 116 76" fill="none" xmlns="http://www.w3.org/2000/svg">
<path fill-rule="evenodd" clip-rule="evenodd" d="M115.938 12.0405C98.1108 -0.363101 77.1083 -0.39979 68.6825 0.188555C53.3072 1.27343 40.801 6.64079 31.9278 11.9568C31.9257 11.9611 31.9244 11.9647 31.9235 11.9681C31.9222 11.9733 31.9222 11.9782 31.9222 11.9852C31.5884 12.1566 31.2544 12.3107 30.9206 12.4877L30.6715 10.318L25.3522 7.7029C17.1298 12.7675 10.5485 19.1227 5.79496 26.5855C2.1393 32.3238 0.249237 37.8969 0.0228905 43.6296C-0.129882 47.4208 0.481301 50.2017 1.87903 52.1259C4.75949 56.0599 10.5428 57.3104 17.707 55.6831C17.8881 56.808 17.9277 58.1155 17.6221 59.5202C17.4184 60.4623 17.0902 61.3074 16.6884 62.061C16.6828 62.0725 16.6714 62.0783 16.6601 62.0839C14.9398 65.3386 11.6011 66.9945 10.2712 67.5482L10.156 67.5952L10.1495 67.598C10.0842 67.6248 10.0194 67.6513 9.953 67.6773C9.89123 67.7015 9.82806 67.7252 9.76189 67.7482C9.0149 67.9994 8.32452 68.1535 7.71905 68.2449V75.3937H17.1015C18.969 75.4279 21.3684 75.348 24.1185 74.897C26.235 74.5543 33.999 73.0982 41.9271 67.1542C43.8851 65.6868 45.7243 64.0367 47.4106 62.238L58.2192 62.6207C58.3267 62.7063 58.4342 62.7976 58.5304 62.889C58.7228 63.1003 59.2038 63.7227 59.3849 64.3222C59.4641 64.8702 58.6832 66.8118 56.3914 68.519V75.525H67.347C68.2015 75.3423 69.2314 75.0339 70.3349 74.5086C70.9291 74.2232 71.4554 73.9205 71.9137 73.6236C74.364 72.1733 76.3729 70.289 77.8839 68.0165C77.9287 67.9506 77.9677 67.879 78.0093 67.8099C78.0254 67.783 78.0419 67.7567 78.0593 67.7311C78.2177 67.4968 78.3592 67.2571 78.5007 67.0172C78.5214 66.9881 78.539 66.9557 78.5559 66.9248L78.5743 66.8917C78.6326 66.7882 78.693 66.6863 78.7536 66.5841L78.8162 66.4784C78.9049 66.3278 78.9925 66.176 79.0722 66.018C79.3382 65.487 79.5815 64.9389 79.8023 64.385C82.8807 64.4478 85.9592 64.3336 88.9979 64.048V64.0539C89.032 64.0539 89.0715 64.048 89.1055 64.0424C89.1415 64.0371 89.1787 64.0332 89.216 64.0298C89.2566 64.026 89.2973 64.0232 89.3368 64.0204L89.3488 64.0196C89.369 64.0166 89.3876 64.0151 89.4064 64.0136L89.4235 64.0123C89.436 64.0113 89.4487 64.01 89.462 64.0081C89.6771 64.4992 89.8242 65.1158 89.7336 65.801C89.5922 66.8402 88.964 67.7482 88.0529 68.3077V75.4851H99.0256C101.351 74.4744 105.573 72.1961 108.221 67.5254C108.77 66.5604 109.183 65.6127 109.495 64.7161C111.558 66.0163 113.711 66.9407 115.938 67.4776V60.0566C113.875 59.2617 111.871 57.9268 109.959 56.0829C107.344 52.1487 106.976 46.7414 109.081 42.499L102.806 39.33C100.52 43.9378 100.146 49.4536 101.561 54.4155C99.9537 54.8608 98.3295 55.2663 96.7111 55.6146C93.9835 56.2084 91.188 56.6652 88.4094 56.9851C86.0157 57.2133 83.5937 57.3104 81.1717 57.2991C81.2283 53.6446 80.255 49.8591 77.7141 46.5587C72.6947 40.0324 64.7552 39.8039 63.1933 39.8039L63.2726 46.8899C63.8385 46.8899 69.1182 46.9356 72.1627 50.8982C75.0035 54.5982 74.5055 59.777 72.5135 63.3287C72.4796 63.3801 72.4513 63.4371 72.4174 63.4885C72.3268 63.6484 72.2307 63.8025 72.1344 63.9511C70.5217 66.3207 68.2354 67.7081 66.6453 68.4332H65.4343C66.4076 66.332 66.6962 64.1681 66.1246 62.2666C65.406 59.8685 64.0478 58.384 63.5215 57.8814C61.9597 56.3911 60.2846 55.8087 59.4415 55.5747C57.209 55.4947 54.9766 55.4163 52.7441 55.3376L46.0468 55.1007C45.7638 55.0721 45.1301 55.0494 44.4341 55.3749C43.8116 55.6603 43.4438 56.0885 43.2739 56.3113C41.6159 58.224 39.7598 59.9599 37.7509 61.4672C31.5543 66.115 25.3805 67.5139 23.015 67.9023C22.3699 68.005 21.7192 68.0908 21.0684 68.1593C21.1476 68.0622 21.2326 67.948 21.3118 67.8453C21.4702 67.6453 21.623 67.4398 21.7758 67.2229L21.78 67.2167L21.9044 67.0347C22.0139 66.874 22.1227 66.7117 22.2285 66.5433C22.3021 66.4178 22.3813 66.2977 22.4548 66.1722C22.5794 65.961 22.6981 65.744 22.817 65.5269C23.5357 64.208 24.1355 62.7176 24.4977 61.0277C24.9108 59.092 24.9561 57.2761 24.792 55.6603C25.6691 55.6317 26.5971 55.5175 27.5704 55.3006C31.8034 54.3527 34.514 51.8403 35.7533 50.4243L30.4962 45.725C29.817 46.4959 28.3401 47.8662 26.0483 48.3802C23.8017 48.8884 21.9908 48.3059 21.2835 48.0376C20.9609 47.9633 20.5534 47.9006 20.0838 47.8948C19.9075 47.8925 19.7409 47.8983 19.5847 47.9096C19.3446 47.9269 19.1292 47.9572 18.9407 47.9919C16.7336 48.7341 14.7361 49.1168 13.0498 49.2367C12.7215 47.1239 11.9915 45.0742 10.8937 43.2699C9.91475 41.671 8.77721 40.432 7.67941 39.4728C8.60176 35.6584 10.3335 32.5865 11.7199 30.4111C14.9681 25.3179 19.2123 20.7899 24.3732 16.9128L24.5543 18.5003C25.8558 18.9114 27.7289 19.6651 29.6643 21.1154C32.0863 22.9312 33.5067 25.0039 34.2536 26.3057C34.8478 25.7689 35.7815 25.0838 37.0265 24.6099C36.6587 25.866 36.1833 27.0936 35.6231 28.2756L41.9498 31.3475C42.6911 29.7944 43.308 28.167 43.789 26.517C44.3152 24.707 44.683 22.8341 44.8811 20.9554L41.763 17.0556C40.1842 16.8901 38.611 16.97 37.0718 17.2726L37.0265 17.1755C45.0565 12.5963 55.9669 8.18249 69.1918 7.25171C77.1539 6.68651 97.4297 6.73223 113.767 19.1684C114.518 19.7398 115.241 20.3191 115.938 20.9063V12.0405ZM102.093 64.0652C100.927 66.1779 99.3595 67.5482 98.0579 68.399H96.3376C96.4961 67.868 96.6149 67.32 96.6941 66.7602C96.8865 65.3271 96.7621 64.0309 96.4734 62.889C96.6641 62.8501 96.8548 62.8119 97.0456 62.7737L97.3889 62.7048C97.644 62.6533 97.899 62.601 98.1541 62.5464C99.8405 62.181 101.527 61.7699 103.202 61.3074C102.964 62.181 102.619 63.1174 102.093 64.0652Z" fill="#12798A"/>
<path d="M18.3238 34.8477C17.3221 35.1275 16.4451 35.8298 15.9188 36.7719C15.6019 37.3373 15.4151 37.9939 15.3868 38.6562L15.3359 40.0495L16.53 40.746C17.0846 41.0715 17.8372 41.317 18.669 41.317C19.2575 41.317 19.88 41.1972 20.4968 40.8888C22.2285 40.0265 22.6642 38.3708 22.7548 37.8854L23.0094 36.5493L21.9795 35.6756C21.1872 35.0018 19.8064 34.4309 18.3238 34.8477Z" fill="#12798A"/>
</svg>
